<svg version="1.2" xmlns="http://www.w3.org/2000/svg" viewBox="0 0 339 340" width="24" height="24">
	<title>asil logo-ai</title>
	<defs>
		<linearGradient id="g1" x2="1" gradientUnits="userSpaceOnUse" gradientTransform="matrix(582.11,582.11,-582.057,582.057,-87.917,-423.358)">
			<stop offset="0" stop-color="#00ffff"/>
			<stop offset="1" stop-color="#3161f1"/>
		</linearGradient>
	</defs>
	<style>
		.s0 { fill: url(#g1) } 
		.s1 { opacity: .1;mix-blend-mode: overlay;fill: #ffffff } 
		.s2 { opacity: .1;fill: #51f5ea } 
		.s3 { fill: #ffffff } 
	</style>
	<g id="Layer 1">
		<g id="&lt;Group&gt;">
			<path id="&lt;Path&gt;" class="s0" d="m0.9 74.4c0.6-42.6 35.5-76.6 78-76l180.9 2.3c42.5 0.6 76.5 35.5 76 78l-2.4 178.9c-0.5 42.5-35.4 76.5-77.9 76l-180.9-2.4c-42.5-0.5-76.5-35.5-76-78z"/>
			<path id="&lt;Path&gt;" class="s1" d="m335.8 78.7c0.1-5.7-0.5-11.4-1.7-16.8-50.1 9.3-111.4 52.8-160.2 118.8-37.8 51.1-60.5 105.5-66.1 151l147.6 1.9c42.6 0.5 77.5-33.5 78.1-76z"/>
			<path id="&lt;Path&gt;" class="s2" d="m334.1 207.3c-48.4 13.9-109.5 17.5-109.5 17.5l-225.7 4.7-0.3 23.7c-0.5 42.5 33.5 77.5 76 78l180.8 2.4c42.6 0.5 77.5-33.5 78.1-76z"/>
			<path id="&lt;Path&gt;" class="s1" d="m80.3 29.2c-9.2-8.5-26-5.2-37.6 7.3-11.5 12.5-13.4 29.5-4.1 38 9.2 8.5 26 5.3 37.6-7.2 11.5-12.5 13.4-29.5 4.1-38.1z"/>
			<path id="&lt;Path&gt;" class="s3" d="m174.8 54.6c3.9 8.7 11.4 15.3 20.6 17.9 17 4.8 32.8 14.2 45.1 27.4 0 0 3.1 3.3 3.1 3.3 4.9 6 14 6.6 19.6 1 5.2-5.1 5.3-13.5 0.2-18.7-1.4-1.4-4.7-4.8-6.1-6.1-3.3-3-7.3-6.6-10.9-9.2-2.5-2-6.6-4.6-9.3-6.4-20.3-12.6-43.5-18.8-66.6-18.6z"/>
			<path id="&lt;Path&gt;" class="s3" d="m62 221.3l5.8-11.9c2.3-4.8 3.1-10.3 1.9-15.6q-1.2-5.1-1.9-10.5c-5.8-43.1 18.1-85.8 56.2-104.4 6-3 10.9-7.7 13.8-13.7l8.4-17.3c-16.8 3.5-32.9 10.5-47.2 21-42.6 30.5-61 88.8-43 138.1q2.6 7.5 6 14.3z"/>
			<path id="&lt;Path&gt;" class="s3" d="m201.4 139.2l-42.4-92.1-85.8 176.8c20.4-2.4 38.3-14.7 47.8-32.9l37.8-72.3 26.6 59.7q6-6.4 11.9-12.9c6.5-7.2 8.1-17.5 4.1-26.3z"/>
			<g id="&lt;Group&gt;">
				<path id="&lt;Path&gt;" class="s3" d="m258.4 239.6l1.4 3c23.1-29.2 32-69.1 20.2-106-1.1-3.5-6.3-2-5.4 1.5 8.9 31.4 2.3 64.6-15.4 90.4-2.3 3.2-2.6 7.5-0.8 11.1z"/>
				<path id="&lt;Path&gt;" class="s3" d="m232.2 258.7c-2.8-0.1-5.6 0.6-8 2q-6.3 3.6-13.2 6.3c-36.1 14.5-74.8 7.3-103-14.1-5.5-4.2-12.6-5.3-19-2.9q-2.4 0.9-4.8 1.8c33.3 33.2 85.2 45.3 130.9 25.2 10.8-4.6 20.6-10.7 29.2-18.1 0 0-7.2-0.1-12.1-0.2z"/>
			</g>
			<path id="&lt;Path&gt;" class="s3" d="m230.7 247.5l19.2 0.3-29.4-61.2-12.1 13.4c-5.8 6.5-7.3 15.7-3.8 23.7l5.6 11c3.9 7.8 11.8 12.7 20.5 12.8z"/>
			<path id="&lt;Path&gt;" class="s3" d="m88.6 228.5c50.4-24.7 135.8-69.6 179.8-111.1 0 0-2.1 34.1-32.3 53.9-26.1 17.2-102.5 50.8-165.4 73.5l3.5-4.6c3.8-5 8.7-9 14.4-11.7z"/>
		</g>
	</g>
</svg>