<svg width="300" height="280" viewBox="0 0 300 280" fill="none" xmlns="http://www.w3.org/2000/svg">
<path d="M73.6111 6.55977C73.6111 3.49031 76.1014 1 79.1709 1C122.896 1 164.027 18.0384 194.999 48.9646C196.053 50.0186 196.621 51.4086 196.621 52.8912C196.621 54.3738 196.042 55.7637 194.999 56.8178C194.432 57.3853 193.772 57.8139 193.042 58.0803V58.4625H191.061C189.613 58.4625 188.235 57.895 187.123 56.8409C158.27 27.9996 119.931 12.1195 79.1709 12.1195C76.1014 12.1195 73.6111 9.62922 73.6111 6.55977ZM183.278 60.6864C183.173 60.5822 183.046 60.4779 182.93 60.3853C155.178 32.7833 118.332 17.5751 79.1709 17.5751C76.1014 17.5751 73.6111 20.0654 73.6111 23.1348C73.6111 26.2043 76.1014 28.6946 79.1709 28.6946C115.529 28.6946 149.722 42.8488 175.436 68.5628L175.54 68.667L175.656 68.7597C201.231 94.4504 215.304 128.55 215.304 164.793C215.304 167.863 217.794 170.353 220.864 170.353C223.933 170.353 226.424 167.863 226.424 164.793C226.424 125.481 211.1 88.5084 183.278 60.6864ZM170.942 71.8176C146.328 47.5167 113.723 34.127 79.1361 34.127C76.0667 34.127 73.5764 36.6173 73.5764 39.6867C73.5764 42.7562 76.0667 45.2465 79.1361 45.2465C111.128 45.2465 141.174 57.6749 163.714 80.2615C163.853 80.4004 163.98 80.4931 164.096 80.5858C186.359 103.068 198.66 132.836 198.752 164.434C198.729 164.573 198.717 164.7 198.717 164.839C198.717 196.808 186.289 226.842 163.703 249.417C161.537 251.583 161.537 255.105 163.703 257.259C164.803 258.313 166.181 258.869 167.618 258.881C169.146 258.881 170.502 258.313 171.544 257.271C196.088 232.727 209.675 200.109 209.814 165.395C209.849 165.175 209.86 164.99 209.86 164.805C209.86 129.894 196.262 97.0682 171.579 72.3851C171.382 72.1882 171.162 72.0029 170.93 71.8291L170.942 71.8176ZM193.285 164.226C193.135 134.261 181.482 106.033 160.471 84.7093C160.297 84.466 160.112 84.2575 159.915 84.049C138.324 62.4934 109.657 50.6325 79.1825 50.6325C76.113 50.6325 73.6227 53.1228 73.6227 56.1923C73.6227 59.2617 76.113 61.7521 79.1825 61.7521C106.645 61.7521 132.475 72.4314 151.923 91.8327L152.027 91.9486C171.498 111.419 182.212 137.284 182.212 164.805V164.839C182.212 192.349 171.498 218.225 152.027 237.696C132.556 257.166 106.68 267.88 79.1709 267.88C76.1014 267.88 73.6111 270.371 73.6111 273.44C73.6111 276.51 76.1014 279 79.1709 279H84.0588L83.9198 278.873C112.321 277.703 138.915 266.189 159.255 246.139C159.498 245.966 159.706 245.78 159.903 245.583C181.459 223.993 193.331 195.325 193.331 164.851C193.331 164.643 193.308 164.446 193.285 164.249V164.226ZM140.34 225.997C138.174 228.163 138.174 231.672 140.34 233.838C141.44 234.893 142.819 235.449 144.255 235.46C145.784 235.46 147.139 234.893 148.181 233.85C166.621 215.445 176.78 190.936 176.78 164.839V164.677C176.745 138.662 166.598 114.199 148.181 95.7825C148.066 95.6666 147.95 95.574 147.834 95.4813C129.464 77.2499 105.082 67.2192 79.1709 67.2192C76.1014 67.2192 73.6111 69.7095 73.6111 72.7789C73.6111 75.8484 76.1014 78.3387 79.1709 78.3387C102.279 78.3387 124.008 87.3386 140.34 103.67L140.444 103.775L140.56 103.867C156.753 120.211 165.66 141.847 165.66 164.805V164.839C165.66 187.947 156.66 209.677 140.328 226.008L140.34 225.997ZM79.1361 94.8443C97.8193 94.8443 115.402 102.13 128.618 115.346L128.722 115.45L128.827 115.531C141.915 128.724 149.12 146.214 149.12 164.793C149.12 167.839 151.598 170.33 154.645 170.353C157.714 170.341 160.193 167.839 160.193 164.793C160.193 143.191 151.807 122.886 136.587 107.597L136.471 107.458C121.17 92.157 100.808 83.7247 79.1477 83.7247C76.0783 83.7247 73.5879 86.215 73.5879 89.2845C73.5879 92.354 76.0667 94.8443 79.1361 94.8443ZM73.6111 105.836C73.6111 108.906 76.1014 111.396 79.1709 111.396C93.4409 111.396 106.842 116.956 116.931 127.033C118.043 128.087 119.433 128.655 120.869 128.655C122.386 128.655 123.753 128.099 124.807 127.033C126.973 124.867 126.973 121.346 124.807 119.191C112.611 106.995 96.4061 100.277 79.1593 100.277C76.0898 100.277 73.5995 102.767 73.5995 105.836H73.6111Z" fill="url(#paint0_radial_1_53)" style=""/>
<defs>
<radialGradient id="paint0_radial_1_53" cx="0" cy="0" r="1" gradientUnits="userSpaceOnUse" gradientTransform="translate(150 140.006) scale(221.626 423.528)">
<stop offset="0.383" stop-color="#00A3FF" style="stop-color:#00A3FF;stop-color:color(display-p3 0.0000 0.6392 1.0000);stop-opacity:1;"/>
<stop offset="0.705" stop-color="#0057FF" style="stop-color:#0057FF;stop-color:color(display-p3 0.0000 0.3412 1.0000);stop-opacity:1;"/>
</radialGradient>
</defs>
</svg>
